<?xml version="1.0" encoding="utf-8"?>
<!DOCTYPE svg PUBLIC "-//W3C//DTD SVG 1.0//EN" "http://www.w3.org/TR/2001/REC-SVG-20010904/DTD/svg10.dtd">
<svg version="1.0" xmlns="http://www.w3.org/2000/svg" width="570px" height="503px" viewBox="0 0 570 503" preserveAspectRatio="xMidYMid meet">
 <g fill="#1a94d2">
  <path d="M 280.28 468.63 l 0 -34.26 -1.83 -0.89 c -2.46 -1.15 -4.72 -3.98 -5.55 -6.86 -1.20 -4.40 1.10 -9.53 5.29 -11.68 4.56 -2.31 9.06 -1.78 12.68 1.47 2.62 2.41 3.56 4.45 3.56 8.12 0 3.56 -2.15 7.18 -5.19 8.70 -1.89 1 -2.10 1.36 -2.46 3.56 -0.21 1.41 -0.21 13.94 -0.05 27.92 0.16 13.99 0.16 28.29 0 31.85 l -0.31 6.39 -3.04 0 -3.09 0 0 -34.32 z "/>
  <path d="M 291.29 493.41 c 0 -1.10 2.57 -11.32 3.98 -16.03 1.94 -6.34 6.08 -16.19 10.01 -23.73 3.14 -6.08 6.97 -11.84 12.57 -18.97 l 2.25 -2.78 -3.61 -7.07 c -6.23 -12.15 -10.43 -25.57 -12.52 -40.08 -0.58 -3.77 -1.15 -7.13 -1.36 -7.49 -0.26 -0.42 -5.55 -0.58 -18.91 -0.58 l -18.55 0 -0.26 1.73 c -0.10 0.89 -0.52 3.93 -0.84 6.65 -1.68 14.51 -7.65 32.59 -14.46 44.06 l -1.41 2.41 3.41 4.40 c 7.44 9.59 12.68 18.81 17.18 30.18 3.30 8.33 6.81 20.80 6.81 24.15 0 1.78 -0.37 1.26 -4.24 -5.66 -27.50 -49.35 -70.41 -80.68 -128.56 -93.99 -8.96 -2.04 -17.50 -3.41 -28.24 -4.45 -5.40 -0.52 -10.06 -1.20 -10.32 -1.47 -0.26 -0.26 -0.42 -22.27 -0.37 -54.43 l 0.16 -53.91 6.81 0 6.81 0 0.26 47.62 0.26 47.67 7.07 0.89 c 20.07 2.51 43.59 8.64 60.46 15.72 18.18 7.65 35.99 18.39 48.36 29.18 2.41 2.10 4.61 3.67 4.92 3.46 0.68 -0.42 3.67 -6.86 6.02 -13.15 3.14 -8.49 5.97 -22.58 5.97 -29.91 0 -3.14 -0.05 -3.25 -2.51 -5.71 -5.08 -5.08 -5.66 -12.68 -1.52 -18.97 1.57 -2.31 5.97 -5.40 9.17 -6.34 l 2.20 -0.68 0 -44.74 c 0 -24.57 -0.16 -44.69 -0.37 -44.64 -0.26 0 -4.35 5.97 -9.12 13.20 -4.82 7.28 -14.56 21.85 -21.74 32.43 l -12.99 19.28 1.73 2.36 c 4.98 6.97 5.82 15.87 2.15 23.52 -5.03 10.64 -19.59 15.19 -31.17 9.80 -12.52 -5.87 -16.66 -21.27 -8.75 -32.64 l 2.10 -2.88 -5.34 -8.96 c -2.88 -4.87 -7.54 -12.73 -10.27 -17.39 l -4.98 -8.43 -4.51 0.31 c -10.64 0.84 -19.33 -4.19 -23.58 -13.57 l -1.78 -3.98 -13.99 0 -14.04 0 0 -4.66 c 0 -2.57 -0.16 -5.40 -0.31 -6.29 l -0.31 -1.62 14.83 0 14.88 -0.05 1.31 -2.72 c 1.62 -3.35 6.29 -8.07 9.64 -9.74 7.18 -3.51 15.56 -3.51 22.42 0 3.46 1.78 8.07 6.76 10.01 10.79 1.57 3.30 1.68 3.93 1.68 9.06 0 4.87 -0.16 5.87 -1.41 8.49 -0.79 1.68 -1.99 3.77 -2.72 4.72 l -1.26 1.73 10.74 17.97 10.74 17.92 5.40 0 5.34 0 7.60 -11.37 c 4.19 -6.29 8.23 -12.47 9.01 -13.67 l 1.41 -2.31 -4.82 -8.17 c -16.45 -27.77 -20.17 -34.05 -26.67 -44.90 l -7.18 -12.05 -5.50 0.21 c -9.12 0.31 -14.77 -1.78 -20.07 -7.33 -2.99 -3.14 -5.13 -7.07 -5.76 -10.53 l -0.37 -1.99 -24.31 0 -24.31 0 0 -6.02 0 -6.02 25.04 0 24.99 -0.05 1.26 -2.62 c 3.98 -8.49 15.51 -14.09 25.62 -12.52 17.03 2.67 25.83 21.95 16.40 35.94 l -2.10 3.09 1.89 3.41 c 1.05 1.89 4.77 8.23 8.28 14.15 11 18.49 14.56 24.57 20.22 34.42 2.99 5.29 5.61 9.59 5.82 9.59 0.21 0 1.52 -1.73 2.93 -3.77 1.41 -2.10 6.92 -10.37 12.31 -18.34 5.40 -7.96 9.80 -14.83 9.80 -15.25 0 -0.42 -1.15 -2.04 -2.57 -3.67 -14.93 -17.03 -14.98 -42.54 -0.16 -58.10 2.15 -2.20 3.72 -4.30 3.51 -4.56 -0.79 -1.31 -14.20 -11.63 -20.17 -15.56 -24.68 -16.24 -55.69 -27.66 -91.58 -33.74 -5.19 -0.89 -23.10 -3.14 -24.83 -3.14 -0.26 0 -0.47 14.56 -0.52 32.38 l -0.16 32.32 -1.83 -0.05 c -1 -0.05 -4.14 -0.10 -6.97 -0.16 l -5.08 -0.05 0.10 -37.35 0.16 -37.30 8.64 0.10 c 19.44 0.21 50.77 5.50 71.77 12.10 14.93 4.72 32.32 12.05 43.64 18.49 11.32 6.44 24.62 15.82 33.42 23.63 l 3.46 3.04 3.09 -1.26 c 7.81 -3.20 18.02 -3.82 26.56 -1.68 2.72 0.68 5.66 1.62 6.55 2.10 0.89 0.47 1.73 0.84 1.89 0.84 0.16 0 1.99 -1.57 4.09 -3.46 17.86 -16.19 45.16 -31.33 73.50 -40.81 24.52 -8.17 46.05 -12.05 76.65 -13.62 l 6.39 -0.37 0 70.78 0 70.78 -6.55 0 -6.55 0 -0.05 -5.34 c -0.05 -2.99 0 -31.28 0.05 -62.92 0 -31.59 -0.10 -58.57 -0.31 -59.88 l -0.37 -2.41 -4.24 0.37 c -19.49 1.62 -44.01 6.60 -61.35 12.47 -22.27 7.54 -45.74 19.38 -59.20 29.97 -7.07 5.55 -12.31 9.85 -12.31 10.16 0 0.21 1.10 1.41 2.41 2.67 5.08 4.92 9.27 12.10 11.32 19.23 1.57 5.50 1.68 15.87 0.21 21.64 -1.78 7.13 -5.55 13.99 -10.69 19.49 -1.31 1.41 -2.20 2.78 -1.99 3.14 0.16 0.37 3.20 4.72 6.71 9.69 3.56 4.98 9.27 13.15 12.73 18.18 3.46 5.08 6.39 9.17 6.55 9.17 0.26 0 5.71 -9.12 17.86 -29.81 2.93 -5.03 8.38 -14.25 12.05 -20.43 3.61 -6.18 7.75 -13.20 9.12 -15.61 l 2.51 -4.40 -1.15 -1.36 c -5.50 -6.97 -7.13 -14.56 -4.77 -22.27 1.15 -3.67 4.35 -8.23 7.54 -10.79 5.71 -4.56 14.30 -6.34 21.43 -4.51 11.58 3.04 18.18 12.05 17.50 23.99 -0.31 6.18 -2.67 11.11 -7.07 15.04 -5.19 4.61 -10.43 6.50 -17.60 6.18 l -4.14 -0.10 -1.15 1.78 c -0.63 1 -5.82 9.85 -11.53 19.65 -11.79 20.12 -17.18 29.23 -25.72 43.27 -3.30 5.34 -5.97 10.01 -5.97 10.37 0 0.63 17.60 27.35 18.34 27.82 0.21 0.16 2.36 0.16 4.72 0 l 4.35 -0.26 6.81 -11.53 c 3.72 -6.34 8.38 -14.30 10.37 -17.76 l 3.56 -6.18 -1.26 -1.68 c -0.68 -0.94 -1.94 -3.09 -2.72 -4.77 -1.31 -2.83 -1.47 -3.72 -1.47 -8.91 0 -5.50 0.10 -5.97 1.78 -9.43 5.66 -11.53 19.33 -15.98 31.43 -10.32 3.56 1.68 8.33 6.39 9.95 9.95 l 1.26 2.72 15.77 0 15.77 0 0 6.29 0 6.29 -15.40 0.10 -15.35 0.16 -1.31 3.25 c -3.61 9.01 -13.31 14.72 -23.73 13.94 l -3.41 -0.26 -3.41 5.97 c -1.83 3.25 -6.39 10.95 -10.06 17.13 -3.67 6.18 -6.71 11.26 -6.71 11.37 0 0.10 0.84 1.31 1.94 2.67 2.51 3.30 3.67 5.97 4.30 10.11 1.57 9.80 -3.35 18.91 -12.52 23.26 -2.88 1.36 -4.19 1.62 -8.43 1.78 -7.44 0.31 -12.89 -1.47 -17.50 -5.71 -8.23 -7.60 -9.38 -19.80 -2.83 -28.97 l 2.15 -3.04 -8.80 -13.15 c -9.38 -13.94 -35.47 -51.45 -36.67 -52.76 -0.63 -0.63 -0.73 5.82 -0.63 44.74 l 0.16 45.53 2.20 0.63 c 4.98 1.47 9.27 5.08 11.21 9.38 0.68 1.47 1 3.35 1 6.08 0 4.92 -1.20 7.75 -4.72 11.05 l -2.51 2.36 0.47 4.72 c 0.73 6.76 2.83 16.66 4.72 22.27 1.78 5.29 6.97 17.66 7.75 18.44 0.26 0.26 2.51 -1.26 5.61 -3.82 6.44 -5.29 17.71 -12.89 26.67 -17.86 23.26 -12.94 54.38 -22.95 81.99 -26.40 3.20 -0.37 6.02 -0.84 6.18 -1.05 0.21 -0.21 0.42 -19.12 0.47 -42.07 0.05 -23 0.10 -44.43 0.16 -47.62 l 0 -5.92 6.55 0 6.55 0 0 54.43 0 54.49 -2.99 0.31 c -24.89 2.72 -41.18 6.13 -58.83 12.15 -39.29 13.41 -71.35 36.93 -93.41 68.42 -4.56 6.50 -11.79 18.49 -14.72 24.36 -1.89 3.72 -2.41 4.40 -2.41 3.14 z  m 15.51 -128.56 c 0.79 -0.58 1.68 -1.41 1.99 -1.89 0.84 -1.31 -0.21 -3.61 -2.25 -4.98 -1.78 -1.20 -1.78 -1.20 -22.63 -1.20 l -20.80 0 -1.62 1.36 c -2.51 2.10 -2.88 3.09 -1.78 4.92 1.83 3.14 2.04 3.14 24.89 2.99 20.01 -0.10 20.85 -0.16 22.21 -1.20 z  M206.83 337.34 C 206.83 331.99 202.49 327.70 197.14 327.70 191.85 327.70 187.50 331.99 187.50 337.34 187.50 342.68 191.85 346.98 197.14 346.98 202.49 346.98 206.83 342.68 206.83 337.34 Z M199.45 346.56  M381.24 337.34 C 381.24 332.15 377.05 327.96 371.86 327.96 366.68 327.96 362.48 332.15 362.48 337.34 362.48 342.52 366.68 346.72 371.86 346.72 377.05 346.72 381.24 342.52 381.24 337.34 Z M375.58 345.82  m -79.68 -57.79 l 0.10 -54.80 2.72 -1.73 c 9.53 -5.82 15.82 -17.50 14.93 -27.61 -1.26 -14.25 -13.67 -26.51 -28.08 -27.71 -4.51 -0.37 -10.95 1.20 -15.56 3.77 -9.01 5.03 -15.93 16.45 -15.93 26.19 0 9.38 5.97 19.65 14.83 25.51 l 2.46 1.62 0 17.97 0 17.92 3.93 0.21 3.93 0.16 0 -17.86 c 0 -14.77 0.10 -18.02 0.73 -18.49 0.47 -0.37 2.15 -0.58 4.35 -0.47 l 3.56 0.16 0.10 54.49 c 0.10 29.97 0.26 54.80 0.42 55.17 0.16 0.47 1.26 0.63 3.77 0.52 l 3.56 -0.16 0.16 -54.85 z  m -16.66 28.40 l 0 -9.48 -3.77 0.16 -3.82 0.16 -0.16 7.23 -0.16 7.18 2.93 0 c 2.31 0 2.99 0.21 3.20 0.94 0.58 1.83 1.26 3.25 1.52 3.25 0.16 0 0.26 -4.24 0.26 -9.43 z  m 0 -28.40 l 0 -8.54 -3.93 0.16 -3.93 0.21 0 7.96 c 0 4.40 0.16 8.17 0.37 8.33 0.16 0.21 1.94 0.37 3.93 0.37 l 3.56 0 0 -8.49 z  M162.41 264.78 C 162.41 259.49 158.11 255.19 152.82 255.19 147.53 255.19 143.23 259.49 143.23 264.78 143.23 270.07 147.53 274.36 152.82 274.36 158.11 274.36 162.41 270.07 162.41 264.78 Z M156.59 273.53  M423.78 264.67 C 423.78 259.33 419.48 255.03 414.19 255.03 408.85 255.03 404.55 259.33 404.55 264.67 404.55 269.96 408.85 274.31 414.19 274.31 419.48 274.31 423.78 269.96 423.78 264.67 Z M417.97 273.53  M184.99 199.45 C 184.99 193.63 180.27 188.92 174.46 188.92 168.64 188.92 163.93 193.63 163.93 199.45 163.93 205.26 168.64 209.98 174.46 209.98 180.27 209.98 184.99 205.26 184.99 199.45 Z M178.39 209.09  M408.53 189.65 C 408.53 184.05 403.98 179.54 398.42 179.54 392.82 179.54 388.31 184.05 388.31 189.65 388.31 195.20 392.82 199.71 398.42 199.71 403.98 199.71 408.53 195.20 408.53 189.65 Z M400.26 199.60 "/>
  <path d="M302.81 205.21 C 302.81 215.53 294.43 223.91 284.11 223.91 273.74 223.91 265.35 215.53 265.35 205.21 265.35 194.84 273.74 186.45 284.11 186.45 294.43 186.45 302.81 194.84 302.81 205.21 Z M276.77 222.18 "/>
  <path d="M 231.30 447.04 c -4.66 -2.41 -16.50 -6.97 -25.93 -9.90 -18.18 -5.76 -33.74 -9.22 -53.49 -11.94 -13.05 -1.83 -13.05 -1.83 -13.05 -2.67 0 -1.10 1.20 -1.05 15.45 1.05 14.15 2.04 25.51 4.19 35.78 6.86 7.44 1.94 23.16 6.76 28.66 8.85 2.51 0.94 3.30 1.05 3.04 0.47 -0.16 -0.42 -0.63 -0.73 -1 -0.73 -0.42 0 -0.89 -0.37 -1.05 -0.79 -0.21 -0.42 -0.68 -0.79 -1.05 -0.79 -0.42 0 -0.89 -0.37 -1.05 -0.79 -0.21 -0.42 -0.68 -0.79 -1.05 -0.79 -0.42 0 -0.89 -0.37 -1.05 -0.79 -0.21 -0.42 -0.63 -0.79 -1.05 -0.79 -0.42 0 -0.73 -0.21 -0.73 -0.52 0 -0.26 -0.26 -0.52 -0.58 -0.52 -0.52 0 -5.19 -2.99 -5.71 -3.67 -0.16 -0.21 -0.79 -0.52 -1.41 -0.73 -0.68 -0.21 -1.20 -0.63 -1.20 -0.89 0 -0.26 -0.37 -0.47 -0.79 -0.47 -0.42 0 -0.79 -0.37 -0.79 -0.79 0 -0.47 -0.47 -0.79 -1.26 -0.79 -0.73 0 -1.62 -0.31 -1.99 -0.68 -0.37 -0.31 -1.94 -1.20 -3.41 -1.89 -1.52 -0.73 -2.78 -1.57 -2.78 -1.99 0 -0.37 -0.42 -0.68 -0.94 -0.68 -0.52 0 -4.45 -1.62 -8.75 -3.61 -9.33 -4.24 -19.59 -8.17 -28.40 -10.74 -11.16 -3.30 -29.81 -7.18 -38.51 -8.02 -2.99 -0.26 -3.56 -0.47 -3.56 -1.26 0 -1.20 -0.05 -1.20 9.22 0.05 12.42 1.78 27.24 5.03 37.67 8.38 25.72 8.17 49.46 21.06 67.58 36.73 7.60 6.55 8.17 7.44 3.14 4.82 z "/>
  <path d="M 134.54 422.94 c -0.52 -0.10 -0.94 -0.58 -0.94 -1 0 -0.52 0.68 -0.73 2.36 -0.73 1.99 0 2.36 0.16 2.36 1.05 0 0.79 -0.31 1.05 -1.41 1 -0.84 -0.05 -1.89 -0.16 -2.36 -0.31 z "/>
  <path d="M 128.77 422.42 c -0.52 -0.10 -0.94 -0.58 -0.94 -1 0 -0.52 0.68 -0.73 2.36 -0.73 1.99 0 2.36 0.16 2.36 1.05 0 0.79 -0.31 1.05 -1.41 1 -0.84 -0.05 -1.89 -0.16 -2.36 -0.31 z "/>
  <path d="M 121.96 421.89 c -0.52 -0.10 -0.94 -0.58 -0.94 -1 0 -0.52 0.68 -0.73 2.62 -0.73 2.25 0 2.62 0.16 2.62 1.05 0 0.84 -0.31 1.05 -1.68 1 -0.94 -0.05 -2.15 -0.16 -2.62 -0.31 z "/>
  <path d="M 114.10 421.37 c -0.52 -0.10 -0.94 -0.58 -0.94 -1 0 -0.52 0.68 -0.73 2.62 -0.73 2.25 0 2.62 0.16 2.62 1.05 0 0.84 -0.31 1.05 -1.68 1 -0.94 -0.05 -2.15 -0.16 -2.62 -0.31 z "/>
  <path d="M 99.96 420.85 c -0.52 -0.10 -0.94 -0.58 -0.94 -1 0 -0.58 0.79 -0.73 3.41 -0.73 3.04 0 3.41 0.10 3.41 1.05 0 0.89 -0.31 1.05 -2.46 1 -1.41 -0.05 -2.93 -0.16 -3.41 -0.31 z "/>
  <path d="M 107.92 396.59 c 0 -0.79 0.37 -1.05 1.47 -1.05 2.20 0 3.77 0.58 3.77 1.36 0 0.52 -0.73 0.73 -2.62 0.73 -2.25 0 -2.62 -0.16 -2.62 -1.05 z "/>
  <path d="M 100.06 396.07 c 0 -0.84 0.37 -1.05 1.73 -1.05 2.46 0 4.03 0.52 4.03 1.36 0 0.52 -0.79 0.73 -2.88 0.73 -2.51 0 -2.88 -0.10 -2.88 -1.05 z "/>
  <path d="M 88.01 395.02 c 0 -0.84 0.26 -1.57 0.52 -1.57 0.31 0 0.52 0.21 0.52 0.47 0 0.26 0.94 0.58 2.10 0.79 1.36 0.21 2.10 0.58 2.10 1.10 0 0.58 -0.63 0.79 -2.62 0.79 -2.57 0 -2.62 -0.05 -2.62 -1.57 z "/>
  <path d="M 19.38 287.83 c -8.80 -2.31 -15.35 -8.38 -17.86 -16.50 -1.26 -4.09 -1.26 -5.19 0 -5.19 0.84 0 1.10 0.52 1.36 2.88 0.21 1.57 0.58 2.88 0.84 2.88 0.21 0 0.68 0.84 1.05 1.83 0.37 1 0.89 1.83 1.10 1.83 0.21 0 0.42 0.31 0.42 0.73 0 0.42 0.37 0.84 0.79 1.05 0.47 0.16 0.79 0.94 0.79 1.89 0 1.41 0.16 1.57 1.57 1.57 0.94 0 1.73 0.31 1.89 0.79 0.21 0.42 0.63 0.79 1 0.79 0.37 0 0.79 0.21 0.89 0.42 0.26 0.73 6.97 3.25 9.59 3.56 1.83 0.26 2.36 0.58 2.36 1.31 0 1.20 -1.62 1.26 -5.76 0.16 z "/>
  <path d="M 26.72 287.62 c 0 -0.84 0.37 -1.05 1.57 -1.05 0.84 0 2.78 -0.47 4.30 -1.05 1.52 -0.58 3.30 -1.05 3.98 -1.05 0.68 0 1.15 -0.31 1.15 -0.79 0 -0.47 0.63 -0.94 1.57 -1.10 0.89 -0.21 1.57 -0.63 1.57 -1 0 -0.79 2.20 -2.88 3.04 -2.88 0.37 0 0.63 -0.47 0.63 -1 0 -0.58 0.21 -1.10 0.42 -1.20 0.47 -0.21 3.25 -6.29 3.25 -7.18 0 -0.31 0.73 -0.58 1.57 -0.58 0.89 0 1.57 0.26 1.57 0.52 0 0.31 -0.21 0.52 -0.52 0.52 -0.26 0 -0.52 0.31 -0.52 0.73 0 1.62 -3.93 8.38 -6.23 10.74 -2.83 2.93 -8.38 5.92 -12.52 6.81 -3.98 0.84 -4.82 0.73 -4.82 -0.47 z "/>
  <path d="M 59.20 277.14 c 0 -1 0.37 -1.05 7.86 -1.05 7.49 0 7.86 0.05 7.86 1.05 0 1 -0.37 1.05 -7.86 1.05 -7.49 0 -7.86 -0.05 -7.86 -1.05 z "/>
  <path d="M 75.44 277.14 c 0 -1.05 0.26 -1.05 6.65 -0.94 5.87 0.16 6.71 0.26 6.86 1.10 0.16 0.79 -0.42 0.89 -6.65 0.89 -6.55 0 -6.86 -0.05 -6.86 -1.05 z "/>
  <path d="M39.50 264.25 C 39.50 271.85 33.32 278.03 25.72 278.03 18.07 278.03 11.89 271.85 11.89 264.25 11.89 256.60 18.07 250.42 25.72 250.42 33.32 250.42 39.50 256.60 39.50 264.25 Z M20.22 276.93  M37.35 264.25 C 37.35 257.86 32.17 252.73 25.78 252.73 19.44 252.73 14.25 257.86 14.25 264.25 14.25 270.59 19.44 275.78 25.78 275.78 32.17 275.78 37.35 270.59 37.35 264.25 Z M31.28 274.26 "/>
  <path d="M 0.73 260.27 c 0.58 -3.72 3.77 -9.64 6.97 -12.84 12.10 -12.05 33.63 -8.75 41.07 6.39 0.89 1.89 1.99 3.41 2.36 3.41 0.42 0 0.73 0.37 0.73 0.79 0 0.52 -0.52 0.79 -1.68 0.79 -1.57 0 -1.83 -0.26 -2.99 -3.04 -0.73 -1.62 -1.62 -3.20 -1.99 -3.41 -0.37 -0.21 -0.68 -0.63 -0.68 -0.94 0 -0.26 -0.84 -1.20 -1.83 -2.10 -1 -0.89 -1.83 -1.94 -1.83 -2.31 0 -0.37 -0.73 -0.79 -1.57 -0.94 -0.94 -0.21 -1.57 -0.68 -1.57 -1.15 0 -0.47 -0.47 -0.79 -1.15 -0.79 -0.68 -0.05 -2.51 -0.47 -4.09 -1.05 -1.78 -0.63 -4.24 -1 -6.55 -1 -2.31 0 -4.77 0.37 -6.55 1 -1.57 0.58 -3.41 1 -4.03 1.05 -0.68 0 -1.20 0.26 -1.20 0.58 0 0.84 -1.62 1.99 -2.72 2.04 -0.52 0 -0.94 0.31 -0.94 0.68 0 0.84 -2.20 2.99 -3.04 2.99 -0.37 0 -0.63 0.47 -0.63 1 0 0.58 -0.21 1.10 -0.42 1.20 -0.58 0.21 -3.20 6.23 -3.56 8.23 -0.26 1.15 -0.63 1.62 -1.41 1.62 -0.89 0 -1 -0.26 -0.68 -2.20 z "/>
  <path d="M 103.99 250.32 c -0.16 -0.37 -0.21 -9.74 -0.16 -20.85 l 0.16 -20.17 6.81 0 6.81 0 0 20.69 0 20.69 -6.71 0.16 c -5.03 0.10 -6.76 -0.05 -6.92 -0.52 z "/>
  <path d="M 59.57 249.53 c -0.21 -0.16 -0.37 -0.63 -0.37 -1.05 0 -0.47 0.84 -0.68 2.88 -0.68 2.10 0 2.88 0.21 2.88 0.73 0 1.10 -4.51 1.94 -5.40 1 z "/>
  <path d="M 66.43 249.53 c -0.52 -0.10 -0.94 -0.58 -0.94 -1 0 -0.63 1.94 -0.73 11.84 -0.73 10.95 0 11.79 0.05 11.63 0.94 -0.16 0.79 -1.15 0.89 -10.90 0.94 -5.92 0.05 -11.16 0 -11.63 -0.16 z "/>
  <path d="M 73.24 211.29 c -13.62 -0.16 -14.04 -0.21 -14.04 -1.20 0 -1.05 0.31 -1.05 14.83 -0.94 l 14.77 0.16 0.16 1.20 c 0.16 0.84 -0.05 1.10 -0.79 1.05 -0.52 -0.10 -7.23 -0.21 -14.93 -0.26 z "/>
  <path d="M 59.20 183.89 c 0 -1.05 0.31 -1.05 14.98 -1.05 13.94 0 14.93 0.05 14.77 0.94 -0.16 0.84 -1.36 0.89 -14.98 1.05 -14.51 0.10 -14.77 0.10 -14.77 -0.94 z "/>
  <path d="M 280.55 153.34 c -2.04 -0.94 -5.61 -4.92 -5.40 -6.02 0.16 -0.79 1.20 -0.89 8.96 -1.05 9.74 -0.16 9.95 -0.05 7.60 3.30 -2.51 3.67 -7.60 5.40 -11.16 3.77 z "/>
  <path d="M 86.86 144.70 c -0.16 -0.42 -14.51 -3.09 -23.31 -4.35 -3.77 -0.52 -4.35 -0.73 -4.35 -1.62 0 -0.89 0.26 -1 1.99 -0.73 13.52 2.10 25.67 4.19 26.67 4.56 1.52 0.58 1.68 2.57 0.21 2.57 -0.58 0 -1.10 -0.21 -1.20 -0.42 z "/>
  <path d="M 269.28 141.03 c -1.57 -0.21 -2.62 -1.41 -2.62 -3.09 l 0 -1.20 17.39 0.10 c 16.03 0.16 17.45 0.21 17.60 1.05 0.10 0.52 -0.42 1.52 -1.20 2.31 l -1.36 1.36 -14.25 -0.16 c -7.86 -0.10 -14.83 -0.26 -15.56 -0.37 z "/>
  <path d="M 265.20 130.35 c -0.37 -0.37 -0.63 -1.41 -0.63 -2.36 l 0 -1.73 19.54 0.10 19.49 0.16 0.16 1.36 c 0.37 3.09 0.21 3.09 -19.75 3.09 -13.41 0 -18.34 -0.16 -18.81 -0.63 z "/>
  <path d="M 264.41 121.18 c -0.21 -0.16 -0.37 -1.78 -0.37 -3.61 l 0 -3.25 5.40 -0.21 c 3.93 -0.10 5.45 0 5.76 0.47 0.58 0.89 5.08 0.89 5.08 0.05 0 -0.47 1.15 -0.68 3.93 -0.68 2.78 0 3.93 0.21 3.93 0.68 0 0.42 0.84 0.63 2.36 0.63 1.52 0 2.36 -0.21 2.36 -0.63 0 -0.52 1.52 -0.68 5.76 -0.68 l 5.82 0 -0.16 3.67 -0.16 3.67 -19.70 0.16 c -10.79 0.05 -19.80 -0.05 -20.01 -0.26 z "/>
  <path d="M 207.67 80.21 c -2.51 -1.15 -4.77 -3.82 -5.24 -6.23 -0.31 -1.47 -0.21 -1.68 0.73 -1.68 0.79 0 1.15 0.47 1.41 1.57 0.21 0.89 0.58 1.57 0.84 1.57 0.26 0 0.47 0.47 0.47 1.05 0 0.68 0.37 1.05 1 1.05 0.58 0 1.10 0.26 1.20 0.63 0.26 0.68 4.72 0.79 7.91 0.16 1.47 -0.31 1.94 -0.63 1.94 -1.47 0 -0.58 0.26 -1.89 0.63 -2.83 0.52 -1.47 0.89 -1.73 2.36 -1.73 1.20 0 1.73 0.26 1.73 0.79 0 0.42 -0.31 0.79 -0.73 0.79 -0.37 0 -1 0.68 -1.31 1.52 -0.84 1.89 -3.56 4.56 -5.45 5.24 -2.20 0.84 -5.08 0.68 -7.49 -0.42 z "/>
  <path d="M 351.80 80.21 c -2.20 -1 -4.66 -3.46 -5.24 -5.29 -0.26 -0.79 -0.79 -1.05 -2.15 -1.05 -1.41 0 -1.78 -0.21 -1.78 -1.05 0 -0.89 0.37 -1.05 2.15 -1.05 2.72 0 4.66 1.94 4.66 4.66 0 0.84 0.31 1.10 1.31 1.10 0.84 0 1.31 0.31 1.31 0.84 0 0.73 0.52 0.84 3.30 0.63 2.83 -0.16 3.46 -0.42 4.92 -1.89 2.36 -2.41 3.14 -5.19 2.04 -7.23 -1.26 -2.31 -3.14 -4.19 -4.72 -4.72 -1.31 -0.47 -1.89 -1.68 -5.87 -11.74 -2.41 -6.18 -4.40 -11.58 -4.40 -11.94 0 -0.37 -0.37 -1.05 -0.79 -1.47 -0.42 -0.47 -0.79 -1.26 -0.79 -1.83 0 -0.58 -0.37 -1.41 -0.79 -1.83 -0.94 -1 -1.05 -4.40 -0.10 -4.40 0.68 0 1.78 2.62 8.54 19.65 3.98 10.06 4.45 11.11 6.08 11.94 5.55 2.99 7.07 9.06 3.56 13.88 -2.62 3.61 -7.02 4.72 -11.26 2.78 z "/>
  <path d="M 231.04 72.82 c 0 -0.58 0.26 -1.05 0.58 -1.05 0.26 0 0.37 -0.21 0.21 -0.52 -0.16 -0.26 -1 -0.52 -1.89 -0.52 -1.15 0 -1.52 -0.26 -1.52 -1.05 0 -0.89 0.37 -1.05 2.10 -1.05 3.20 0 5.40 2.78 3.56 4.61 -1.05 1.05 -3.04 0.79 -3.04 -0.42 z "/>
  <path d="M 334.61 73.50 c -0.52 -0.47 -0.42 -2.88 0.10 -3.77 0.26 -0.37 1.68 -0.84 3.14 -1 2.46 -0.21 2.67 -0.16 2.67 0.89 0 0.94 -0.31 1.10 -2.10 1.10 -1.15 0 -2.10 0.26 -2.10 0.52 0 0.31 0.47 0.52 1.05 0.52 0.68 0 1.05 0.37 1.05 1.05 0 0.84 -0.37 1.05 -1.73 1.05 -1 0 -1.94 -0.16 -2.10 -0.37 z "/>
  <path d="M 202.22 71.04 c 0 -2.67 2.78 -6.23 5.92 -7.60 1.99 -0.84 2.10 -1.05 6.13 -11.32 2.25 -5.76 4.92 -12.47 5.92 -14.88 l 1.83 -4.45 -1.20 -1.83 c -2.51 -3.88 -2.15 -8.49 0.89 -11.42 2.67 -2.62 6.18 -3.61 6.18 -1.83 0 1 -2.51 2.20 -4.61 2.20 -0.84 0 -1.15 0.31 -1.15 1.15 0 0.63 -0.26 1.89 -0.63 2.83 -0.47 1.36 -0.47 2.15 0.10 3.82 0.37 1.15 1 2.20 1.36 2.36 1.10 0.42 0.89 4.35 -0.42 7.49 -0.63 1.52 -1.31 2.78 -1.57 2.78 -0.21 0 -0.42 0.42 -0.42 0.89 0 1.20 -7.91 21.32 -8.49 21.53 -0.21 0.10 -0.42 0.58 -0.42 1.05 0 0.89 -3.09 2.20 -5.24 2.20 -0.73 0 -1.05 0.37 -1.05 1.15 0 2.10 -1.20 4.61 -2.20 4.61 -0.52 0 -0.94 -0.31 -0.94 -0.73 z "/>
  <path d="M 216.79 67.64 c -1.78 -1.78 -2.51 -2.93 -2.51 -3.98 0 -1.73 6.23 -18.07 6.92 -18.07 0.21 0 0.42 -0.47 0.42 -1 0 -0.58 0.73 -2.93 1.68 -5.24 1.36 -3.61 1.83 -4.24 2.83 -4.24 l 1.26 0 -1.10 2.78 c -5.40 13.41 -9.90 25.09 -9.90 25.46 0 1.10 4.30 4.66 6.02 4.98 2.88 0.58 2.41 1.89 -0.63 1.89 -2.31 0 -2.72 -0.26 -4.98 -2.57 z "/>
  <path d="M 344.72 69.42 c 0 -0.42 0.31 -0.79 0.68 -0.79 0.37 0 1.89 -1.15 3.41 -2.62 l 2.72 -2.62 -4.24 -11.11 c -4.92 -12.99 -6.71 -17.18 -7.33 -17.18 -0.26 0 -0.47 -0.21 -0.47 -0.52 0 -0.26 0.68 -0.52 1.47 -0.52 1.57 0 2.72 1.57 2.72 3.67 0 0.58 0.26 1.05 0.52 1.05 0.31 0 0.52 0.58 0.52 1.31 0 0.73 0.21 1.31 0.52 1.31 0.26 0 0.68 0.94 0.84 2.10 0.21 1.15 0.52 2.10 0.79 2.10 0.26 0 0.63 0.94 0.79 2.10 0.21 1.15 0.52 2.10 0.79 2.10 0.26 0 0.47 0.58 0.47 1.31 0 0.73 0.26 1.31 0.52 1.31 0.31 0 0.52 0.58 0.52 1.31 0 0.73 0.21 1.31 0.52 1.31 0.26 0 0.63 0.89 0.84 1.99 0.21 1.05 0.58 2.10 0.89 2.25 0.73 0.52 1.15 5.19 0.42 5.19 -0.31 0 -0.58 0.42 -0.58 0.94 0 1.57 -3.88 4.82 -5.76 4.82 -1.05 0 -1.57 -0.26 -1.57 -0.79 z "/>
  <path d="M 238.37 38.72 l -4.72 -4.19 -2.36 0.37 c -2.15 0.31 -2.36 0.21 -2.36 -0.73 0 -1.05 1.73 -1.68 4.77 -1.68 1.15 0 1.52 0.26 1.52 1.05 0 0.73 0.37 1.05 1.20 1.05 1.62 0 3.51 2.04 3.51 3.77 0 1.20 0.26 1.36 2.10 1.57 1.94 0.16 2.10 0.10 2.10 -1.10 0 -1.20 0.05 -1.26 1.05 -0.31 0.58 0.52 1.05 1.20 1.05 1.57 0 0.63 -2.15 2.88 -2.78 2.88 -0.21 0 -2.51 -1.89 -5.08 -4.24 z "/>
  <path d="M 324.40 42.12 c -0.63 -0.42 -1.15 -1.20 -1.15 -1.73 0 -0.52 1.68 -2.72 3.67 -4.98 2.04 -2.20 3.67 -4.35 3.67 -4.77 0 -0.42 0.37 -0.79 0.79 -0.79 0.52 0 0.79 0.58 0.79 1.83 0 1.62 -0.16 1.83 -1.31 1.83 -1.05 0 -1.31 0.26 -1.31 1.41 0 1.52 -2.31 4.35 -3.51 4.35 -0.42 0 -0.58 0.26 -0.37 0.58 0.21 0.37 1.52 -0.58 3.35 -2.41 2.46 -2.46 3.25 -2.93 4.51 -2.78 1.52 0.16 1.47 0.21 -2.41 4.24 -2.20 2.20 -4.30 4.03 -4.77 4.03 -0.42 0 -1.31 -0.37 -1.94 -0.84 z "/>
  <path d="M 235.39 28.97 c 0.16 -1.68 0.58 -3.09 0.89 -3.20 0.26 -0.10 0.52 -0.73 0.52 -1.36 0 -1 1.05 -1.41 11.16 -4.40 6.08 -1.83 11.63 -3.30 12.26 -3.25 0.63 0 1.20 -0.21 1.31 -0.47 0.21 -0.58 12.78 -4.24 14.67 -4.24 1.26 0 1.47 0.21 1.47 1.41 0 1.05 -0.16 1.26 -0.58 0.84 -0.42 -0.42 -1.31 -0.37 -3.30 0.21 -4.56 1.31 -32.43 9.59 -34.16 10.16 -1.47 0.47 -1.68 0.79 -1.99 3.14 -0.26 1.73 -0.16 2.93 0.26 3.41 0.47 0.63 0.31 0.73 -1.10 0.73 l -1.73 0 0.31 -2.99 z "/>
  <path d="M 281.91 26.35 c -0.26 -1.10 -0.68 -3.51 -0.89 -5.34 -0.31 -2.72 -0.63 -3.61 -1.73 -4.56 l -1.36 -1.20 1.99 -0.05 c 1.73 0 1.94 0.16 1.94 1.31 0 0.73 0.26 1.31 0.52 1.31 0.31 0 0.52 0.68 0.52 1.57 0 1.89 1.05 6.97 1.41 6.65 0.10 -0.16 0.52 -2.41 0.94 -5.08 0.79 -5.40 1.41 -6.23 4.45 -6.23 l 1.83 0 -1.89 1.68 c -1.78 1.52 -1.99 2.10 -2.57 5.87 -0.79 5.24 -1.20 6.02 -3.14 6.02 -1.31 0 -1.62 -0.26 -2.04 -1.94 z "/>
  <path d="M 329.43 25.67 c -0.16 -0.47 -10.06 -3.61 -29.86 -9.48 -4.87 -1.41 -7.75 -2.51 -7.75 -2.93 0 -0.42 0.63 -0.68 1.41 -0.68 1.83 0 16.08 4.19 16.29 4.82 0.10 0.21 0.79 0.42 1.52 0.42 1.83 0 10.64 2.67 10.64 3.25 0 0.21 0.58 0.42 1.31 0.42 0.73 0 2.72 0.37 4.45 0.89 2.88 0.79 3.14 1 3.14 2.36 0 1.41 -0.79 2.04 -1.15 0.94 z "/>
  <path d="M 233.29 20.80 c -0.21 -0.37 -1.20 -1 -2.10 -1.36 -1.10 -0.47 -1.73 -1.05 -1.73 -1.68 0 -1.41 1.47 -1.26 4.19 0.47 l 2.31 1.47 10.79 -3.35 c 5.92 -1.89 14.72 -4.51 19.59 -5.82 l 8.80 -2.46 0.68 -1.99 c 0.79 -2.25 2.51 -4.24 4.56 -5.34 1.94 -1 3.04 -0.94 3.04 0.21 0 1.05 -1.99 2.20 -3.67 2.20 -0.68 0 -1.05 0.37 -1.05 1.05 0 1.68 -1.15 3.67 -2.20 3.67 -0.63 0 -0.94 0.37 -0.94 1.20 0 1.10 -0.42 1.31 -3.77 2.10 -2.10 0.52 -4.35 0.89 -4.98 0.89 -0.63 0 -1.20 0.21 -1.31 0.42 -0.05 0.26 -1.47 0.79 -3.04 1.26 -1.57 0.47 -7.86 2.36 -13.99 4.30 -11.11 3.46 -14.41 4.09 -15.19 2.78 z "/>
  <path d="M 318.01 17.92 c -5.92 -1.89 -10.79 -3.61 -10.90 -3.88 -0.10 -0.21 -0.79 -0.42 -1.52 -0.42 -0.68 0 -4.09 -0.79 -7.54 -1.68 l -6.23 -1.68 -0.79 -2.67 c -0.63 -1.94 -1.36 -2.99 -2.88 -4.03 -1.10 -0.84 -2.25 -1.47 -2.57 -1.47 -0.31 0 -0.58 -0.47 -0.58 -1.05 0 -1.26 1.05 -1.36 3.46 -0.21 2.04 1 3.61 2.93 4.56 5.71 l 0.68 1.94 11.47 3.30 c 6.34 1.83 14.83 4.40 18.81 5.71 4.03 1.31 7.49 2.25 7.75 2.10 0.21 -0.16 0.42 0.21 0.42 0.79 0 1.73 -2.31 1.36 -14.15 -2.46 z "/>
 </g>
 <g fill="#fcd749">
  <path d="M 337.65 444.47 c 15.77 -14.88 42.59 -29.86 68.89 -38.35 17.55 -5.71 36.41 -9.27 55.80 -10.58 4.61 -0.31 9.85 -0.68 11.63 -0.84 l 3.30 -0.31 0.10 -58.99 0.16 -59.04 15.19 0 15.19 0 0 72.04 0 72.04 -23.05 0.31 c -37.77 0.58 -59.57 2.46 -86.13 7.60 -23.10 4.40 -47.78 11.79 -60.51 18.07 -2.25 1.15 -4.24 2.04 -4.45 2.04 -0.16 -0.05 1.57 -1.83 3.88 -3.98 z "/>
  <path d="M208.83 337.34 C 208.83 343.78 203.64 348.97 197.19 348.97 190.75 348.97 185.51 343.78 185.51 337.34 185.51 330.89 190.75 325.65 197.19 325.65 203.64 325.65 208.83 330.89 208.83 337.34 Z M193.21 348.18 "/>
  <path d="M 538.46 288.14 c -5.82 -1.05 -11.89 -4.09 -15.19 -7.65 -1.89 -2.04 -4.98 -7.28 -5.40 -9.17 l -0.37 -1.52 -25.72 -0.10 -25.78 -0.16 0 -6.02 0 -6.02 25.51 -0.16 25.51 -0.10 1.83 -3.88 c 7.75 -16.03 30.49 -19.49 43.33 -6.55 6.02 6.02 8.59 15.14 6.44 22.53 -3.25 11.11 -12.15 18.13 -24.15 19.02 -1.94 0.10 -4.66 0.05 -6.02 -0.21 z  M554.65 263.63 C 554.65 257.13 549.36 251.84 542.86 251.84 536.37 251.84 531.07 257.13 531.07 263.63 531.07 270.12 536.37 275.41 542.86 275.41 549.36 275.41 554.65 270.12 554.65 263.63 Z M549.46 273.32 "/>
  <path d="M425.82 264.73 C 425.82 271.12 420.58 276.36 414.19 276.36 407.75 276.36 402.56 271.12 402.56 264.73 402.56 258.28 407.75 253.09 414.19 253.09 420.58 253.09 425.82 258.28 425.82 264.73 Z M411.26 275.88 "/>
  <path d="M 477.27 195.99 l 0 -53.39 1.20 -0.26 c 3.25 -0.84 28.76 -4.56 29.18 -4.30 0.31 0.21 0.47 22.21 0.37 55.69 l -0.10 55.38 -15.30 0.16 -15.35 0.10 0 -53.39 z "/>
  <path d="M 20.96 221.08 c -5.87 -1.10 -10.11 -3.41 -14.04 -7.54 -11.05 -11.68 -7.75 -30.23 6.65 -37.46 4.24 -2.15 7.96 -2.83 13.99 -2.57 4.09 0.21 5.92 0.58 8.75 1.73 5.87 2.41 11.74 8.59 13.05 13.73 l 0.52 2.25 26.67 0 26.67 0 0 6.02 0 6.02 -26.40 0 -26.46 0 -1.83 3.82 c -3.14 6.55 -7.70 10.69 -14.15 12.94 -3.51 1.20 -10.01 1.73 -13.41 1.05 z  M37.20 197.09 C 37.20 190.75 32.01 185.56 25.67 185.56 19.33 185.56 14.15 190.75 14.15 197.09 14.15 203.48 19.33 208.62 25.67 208.62 32.01 208.62 37.20 203.48 37.20 197.09 Z M30.70 207.52 "/>
  <path d="M186.98 199.45 C 186.98 206.42 181.37 212.02 174.46 212.02 167.54 212.02 161.88 206.42 161.88 199.45 161.88 192.53 167.54 186.93 174.46 186.93 181.37 186.93 186.98 192.53 186.98 199.45 Z M168.33 210.40 "/>
  <path d="M 263.63 111.28 c -0.73 -5.55 -1.73 -7.33 -7.70 -13.88 -5.82 -6.39 -9.27 -12.99 -10.48 -20.12 -0.63 -3.56 -0.37 -11.53 0.52 -15.19 2.41 -10.48 10.22 -20.17 20.01 -24.94 5.87 -2.83 10.95 -3.77 18.49 -3.46 11.37 0.47 18.34 3.41 25.99 11.11 3.88 3.82 5.19 5.61 6.92 9.17 3.93 7.96 5.03 15.56 3.56 23.89 -1.31 7.75 -3.98 13.05 -10.37 20.96 -4.61 5.61 -5.66 7.81 -6.08 12.68 l -0.37 4.03 -5.50 0 -5.50 0 0 -12.05 c 0 -10.01 0.16 -12.57 0.94 -15.04 0.89 -2.93 1 -3.04 2.72 -3.04 2.51 0 4.30 -0.94 4.98 -2.62 1.20 -2.88 -0.73 -5.76 -3.82 -5.76 -1.36 0 -2.04 0.52 -4.72 3.67 -1.05 1.20 -6.29 1.83 -12.47 1.41 -4.77 -0.31 -6.76 -0.94 -6.76 -2.20 0 -0.37 -0.63 -1.20 -1.41 -1.83 -4.03 -3.14 -8.70 2.46 -5.08 6.08 1.10 1.15 1.62 1.31 3.14 1 1.78 -0.31 1.83 -0.26 2.88 2.15 1.31 2.83 1.94 11.68 1.68 21.95 l -0.16 6.29 -5.40 0.16 -5.40 0.16 -0.63 -4.56 z  m -0.21 -49.93 c 3.82 -5.87 9.01 -9.43 15.45 -10.74 3.67 -0.73 4.56 -1.68 3.61 -3.72 -0.68 -1.41 -0.73 -1.41 -4.82 -1.20 -3.41 0.21 -4.82 0.58 -7.96 2.15 -6.08 2.99 -11.47 9.17 -12.78 14.67 -0.26 1.26 -0.10 1.52 1.41 2.20 1 0.42 1.89 0.73 2.04 0.79 0.16 0 1.52 -1.89 3.04 -4.14 z "/>
  <path d="M 280.08 113.58 c -0.16 -1.26 -0.37 -6.50 -0.52 -11.68 -0.16 -6.02 -0.52 -10.58 -1.05 -12.57 -0.42 -1.73 -0.79 -3.30 -0.84 -3.51 0 -0.26 2.93 -0.42 6.50 -0.42 l 6.50 0 -0.73 2.46 c -1 3.30 -1.78 12.47 -1.78 21.01 l 0 6.92 -3.88 0 -3.93 0 -0.26 -2.20 z "/>
  <path d="M348.23 26.46 C 348.23 32.01 343.78 36.52 338.23 36.52 332.67 36.52 328.22 32.01 328.22 26.46 328.22 20.96 332.67 16.45 338.23 16.45 343.78 16.45 348.23 20.96 348.23 26.46 Z M340.90 35.94 "/>
 </g>
 <g fill="#38d5d0">
  <path d="M 231.82 447.15 c -3.56 -2.10 -17.34 -7.39 -27.09 -10.43 -18.02 -5.66 -31.33 -8.59 -52.02 -11.58 -23.37 -3.35 -41.23 -4.45 -72.93 -4.45 l -20.59 0 0 -72.14 0 -72.19 12.68 0.10 c 7.02 0.05 13.73 0.10 14.93 0.10 l 2.25 0.05 0.10 59.10 0.16 59.04 8.64 0.37 c 31.64 1.36 60.35 7.91 86.50 19.80 16.35 7.44 32.80 17.86 43.90 27.71 2.10 1.89 4.45 3.98 5.24 4.61 1.78 1.52 0.89 1.41 -1.78 -0.10 z "/>
  <path d="M 260.59 366.94 c -2.04 -1 -3.35 -3.25 -3.35 -5.71 0 -1.57 0.42 -2.36 2.04 -3.98 l 2.04 -2.04 22.42 0 c 21.38 0 22.58 0.05 24.15 1.05 4.56 2.78 4.14 8.75 -0.73 10.79 -2.62 1.10 -44.27 1.05 -46.57 -0.10 z "/>
  <path d="M 193.84 348.44 c -2.15 -0.68 -4.40 -1.94 -5.50 -3.20 -0.68 -0.73 -0.10 -0.52 1.73 0.68 1.73 1.20 3.67 1.99 5.24 2.20 3.77 0.52 4.24 0.68 1.94 0.68 -1.15 0 -2.67 -0.16 -3.41 -0.37 z "/>
  <path d="M383.23 337.34 C 383.23 343.62 378.15 348.71 371.91 348.71 365.63 348.71 360.55 343.62 360.55 337.34 360.55 331.05 365.63 325.97 371.91 325.97 378.15 325.97 383.23 331.05 383.23 337.34 Z M367.36 347.66 "/>
  <path d="M 202.49 347.24 c 1.99 -1.10 4.09 -3.30 5.03 -5.40 0.52 -1.15 1 -1.78 1 -1.41 0 1.94 -4.77 7.44 -6.44 7.44 -0.31 0 -0.16 -0.31 0.42 -0.63 z "/>
  <path d="M 286.83 344.10 c -0.16 -0.37 -0.31 -25.20 -0.42 -55.17 l -0.10 -54.49 -1.99 -0.16 c -3.77 -0.31 -3.51 -4.03 -3.51 48.41 0 26.04 -0.21 47.36 -0.42 47.36 -0.84 0 -3.82 -3.56 -4.24 -5.03 -0.37 -1.41 -0.58 -1.52 -3.35 -1.68 l -2.99 -0.16 0.10 -8.75 0.16 -8.75 3.93 -0.26 3.93 -0.26 0 -3.41 0 -3.41 -3.93 -0.26 -3.93 -0.26 -0.16 -9.80 -0.10 -9.85 3.61 0 c 4.09 0 4.77 -0.52 4.77 -3.67 0 -3.14 -0.68 -3.67 -4.72 -3.67 l -3.67 0 0 -17.97 0 -18.02 -2.46 -1.62 c -9.43 -6.23 -14.83 -16.08 -14.83 -27.09 0 -8.54 3.35 -16.66 9.27 -22.58 12.21 -12.21 32.22 -12.15 44.48 0.10 5.61 5.55 8.54 12.21 8.96 20.22 0.37 6.55 -0.37 10.48 -3.09 16.14 -2.41 5.03 -7.02 10.11 -11.84 13.05 l -2.72 1.73 -0.10 54.80 -0.16 54.85 -5.13 0.16 c -3.77 0.10 -5.19 -0.05 -5.34 -0.52 z  M300.77 205.21 C 300.77 195.99 293.28 188.50 284.06 188.50 274.84 188.50 267.34 195.99 267.34 205.21 267.34 214.48 274.84 221.98 284.06 221.98 293.28 221.98 300.77 214.48 300.77 205.21 Z M289.61 220.82 "/>
  <path d="M 208.67 337.13 c 0 -1.41 0.10 -1.99 0.21 -1.15 0.10 0.79 0.10 1.94 0 2.62 -0.10 0.63 -0.21 0 -0.21 -1.47 z "/>
  <path d="M 207.46 332.26 c 0 -0.31 -0.73 -1.47 -1.68 -2.57 -1.52 -1.78 -1.52 -1.83 -0.21 -0.68 1.62 1.47 2.62 3.09 2.20 3.56 -0.16 0.16 -0.31 0 -0.31 -0.31 z "/>
  <path d="M 188.34 329.64 c 0.58 -0.68 1.52 -1.47 2.10 -1.78 1.10 -0.58 0.94 -0.42 -1.57 1.68 -1.52 1.26 -1.52 1.26 -0.52 0.10 z "/>
  <path d="M 195.83 326.02 c 0.94 -0.10 2.36 -0.10 3.14 0 0.79 0.10 0 0.21 -1.73 0.21 -1.73 0 -2.36 -0.10 -1.41 -0.21 z "/>
  <path d="M 20.43 287.88 c -11.84 -2.67 -19.91 -12.31 -19.91 -23.78 0 -7.23 4.87 -15.72 11.42 -19.91 7.86 -4.98 19.44 -5.08 27.71 -0.21 3.14 1.83 7.65 7.02 9.17 10.37 l 1.20 2.88 26.46 0.10 26.46 0.16 0.16 6.18 0.16 6.13 -26.51 0 c -24.78 0 -26.51 0.05 -26.77 0.94 -1.94 5.71 -5.76 11 -9.85 13.57 -5.61 3.56 -13.41 4.98 -19.70 3.56 z  M37.56 264.25 C 37.56 257.76 32.27 252.47 25.78 252.47 19.23 252.47 13.99 257.76 13.99 264.25 13.99 270.75 19.23 276.04 25.78 276.04 32.27 276.04 37.56 270.75 37.56 264.25 Z M29.23 275.31 "/>
  <path d="M164.40 264.83 C 164.40 271.22 159.21 276.46 152.77 276.46 146.32 276.46 141.14 271.22 141.14 264.83 141.14 258.39 146.32 253.15 152.77 253.15 159.21 253.15 164.40 258.39 164.40 264.83 Z M149.15 275.88 "/>
  <path d="M 417.02 275.62 c 2.51 -0.79 4.61 -2.15 6.02 -3.82 0.79 -0.94 1.15 -1.26 0.89 -0.68 -1.10 2.20 -5.29 5.03 -7.28 4.92 -0.63 0 -0.52 -0.16 0.37 -0.42 z "/>
  <path d="M 406.96 273.79 c -1.31 -1 -2.51 -2.25 -2.72 -2.78 -0.21 -0.58 0.10 -0.42 0.84 0.47 0.68 0.79 2.15 1.99 3.25 2.72 1.10 0.73 1.78 1.36 1.52 1.36 -0.31 0 -1.57 -0.84 -2.88 -1.78 z "/>
  <path d="M 465.95 263.52 c 0 -3.30 0.05 -4.66 0.16 -2.99 0.10 1.62 0.10 4.35 0 6.02 -0.10 1.62 -0.16 0.26 -0.16 -3.04 z "/>
  <path d="M 402.51 264.83 c 0 -1.41 0.10 -1.99 0.21 -1.15 0.10 0.79 0.10 1.94 0 2.62 -0.10 0.63 -0.21 0 -0.21 -1.47 z "/>
  <path d="M 425.56 264.83 c 0 -1.41 0.10 -1.99 0.21 -1.15 0.10 0.79 0.10 1.94 0 2.62 -0.10 0.63 -0.21 0 -0.21 -1.47 z "/>
  <path d="M 402.88 261.53 c 0 -1.05 1.36 -3.51 2.46 -4.35 0.89 -0.68 0.89 -0.68 0.05 0.31 -0.47 0.63 -1.26 1.89 -1.68 2.88 -0.42 1 -0.79 1.52 -0.84 1.15 z "/>
  <path d="M 424.46 260.11 c -0.42 -1 -1.57 -2.72 -2.62 -3.77 -1.57 -1.52 -1.68 -1.73 -0.47 -0.94 1.57 1 4.24 5.13 3.93 6.08 -0.10 0.31 -0.47 -0.31 -0.84 -1.36 z "/>
  <path d="M 406.86 255.56 c 0.37 -0.63 3.35 -2.10 3.82 -1.89 0.21 0.10 -0.63 0.63 -1.83 1.26 -1.26 0.58 -2.15 0.89 -1.99 0.63 z "/>
  <path d="M 412.99 253.20 c 0.79 -0.10 2.04 -0.10 2.88 0 0.79 0.10 0.10 0.21 -1.47 0.21 -1.57 0 -2.25 -0.10 -1.41 -0.21 z "/>
  <path d="M 59.20 229.47 l 0 -19.91 14.83 0.10 14.77 0.16 0.16 19.80 0.10 19.75 -14.93 0 -14.93 0 0 -19.91 z "/>
  <path d="M 179.96 210.24 c 2.25 -1.15 4.82 -3.72 5.55 -5.50 0.31 -0.84 0.73 -1.41 0.84 -1.26 0.42 0.42 -1.31 3.20 -3.09 4.82 -1.73 1.68 -3.61 2.83 -4.45 2.83 -0.21 -0.05 0.31 -0.42 1.15 -0.89 z "/>
  <path d="M 165.66 208.77 c -1.73 -1.47 -3.77 -5.24 -3.72 -6.86 0 -0.52 0.37 0.16 0.79 1.52 0.47 1.52 1.57 3.30 2.83 4.56 2.36 2.36 2.41 2.72 0.10 0.79 z "/>
  <path d="M410.53 189.60 C 410.53 196.30 405.08 201.75 398.42 201.75 391.72 201.75 386.27 196.30 386.27 189.60 386.27 182.94 391.72 177.50 398.42 177.50 405.08 177.50 410.53 182.94 410.53 189.60 Z M394.08 200.91 "/>
  <path d="M 186.56 197.56 c -0.10 -2.15 -2.10 -5.71 -4.14 -7.44 -1.10 -0.89 -1.41 -1.36 -0.84 -1.05 2.62 1.31 5.71 6.39 5.29 8.64 -0.21 1 -0.21 1 -0.31 -0.16 z "/>
  <path d="M 161.88 197.19 c 0 -0.52 0.26 -1.36 0.52 -1.78 0.42 -0.58 0.47 -0.37 0.21 0.79 -0.42 1.94 -0.73 2.36 -0.73 1 z "/>
  <path d="M 102.84 193.84 c 0 -1.57 0.10 -2.25 0.21 -1.41 0.10 0.79 0.10 2.04 0 2.88 -0.10 0.79 -0.21 0.10 -0.21 -1.47 z "/>
  <path d="M 166.91 189.55 c 0.37 -0.63 3.35 -2.10 3.82 -1.89 0.21 0.10 -0.63 0.63 -1.83 1.26 -1.26 0.58 -2.15 0.89 -1.99 0.63 z "/>
  <path d="M 173.04 187.19 c 0.79 -0.10 2.04 -0.10 2.88 0 0.79 0.10 0.10 0.21 -1.47 0.21 -1.57 0 -2.25 -0.10 -1.41 -0.21 z "/>
  <path d="M 59.20 161.36 l 0 -23.05 1.47 0 c 3.72 0 27.50 4.19 27.98 4.92 0.21 0.31 0.42 9.69 0.42 20.90 l 0 20.27 -14.93 0 -14.93 0 0 -23.05 z "/>
  <path d="M 265.62 115.47 c 4.35 -0.42 9.85 -0.42 9.59 -0.05 -0.10 0.21 -2.72 0.31 -5.82 0.26 -3.09 -0.05 -4.77 -0.16 -3.77 -0.21 z "/>
  <path d="M 282.28 115.41 c 1.20 -0.10 3.09 -0.10 4.19 0 1.05 0.10 0.05 0.21 -2.25 0.21 -2.31 0 -3.20 -0.10 -1.94 -0.21 z "/>
  <path d="M 293.23 115.41 c -0.16 -0.26 1.41 -0.37 3.46 -0.26 6.76 0.26 7.54 0.47 2.10 0.52 -2.93 0.05 -5.45 -0.05 -5.55 -0.26 z "/>
  <path d="M 208.77 80.58 c -3.72 -1.31 -6.55 -5.08 -6.55 -8.59 0.05 -3.61 3.20 -7.81 6.39 -8.43 1.47 -0.31 1.10 0.52 13.20 -29.70 0.31 -0.84 0.10 -1.62 -0.94 -3.14 -1.10 -1.62 -1.36 -2.67 -1.36 -5.03 0 -3.72 1.41 -6.08 4.72 -7.70 3.61 -1.89 7.54 -1.41 10.53 1.26 0.79 0.63 2.20 0.31 12.05 -2.78 9.64 -2.99 22.11 -6.60 26.72 -7.70 1 -0.26 1.78 -1.15 2.88 -3.35 1.10 -2.25 2.10 -3.35 3.61 -4.19 5.03 -2.83 11.32 -0.10 12.84 5.50 l 0.52 1.99 6.65 1.78 c 6.97 1.83 30.39 9.12 30.81 9.53 0.16 0.16 -0.10 1.31 -0.58 2.62 l -0.79 2.41 -4.82 -1.47 c -2.67 -0.79 -10.11 -3.04 -16.61 -4.98 -17.18 -5.19 -15.25 -4.87 -17.92 -2.83 -1.26 1 -2.31 1.78 -2.41 1.83 -0.10 0.05 -0.47 2.25 -0.89 4.87 -0.84 5.55 -0.94 5.82 -2.67 5.82 -1.57 0 -2.04 -1.05 -2.78 -6.55 -0.58 -3.82 -0.73 -4.19 -2.83 -6.02 -1.57 -1.47 -2.51 -1.94 -3.35 -1.73 -0.63 0.16 -9.22 2.67 -19.12 5.61 l -17.92 5.34 -0.68 2.57 -0.63 2.62 4.66 4.77 c 2.62 2.62 4.72 5.03 4.72 5.29 0 0.79 -1.78 2.25 -2.78 2.25 -0.47 0 -2.46 -1.47 -4.40 -3.25 -6.02 -5.50 -5.24 -5.08 -8.80 -4.40 l -3.14 0.63 -5.66 14.09 -5.61 14.09 2.41 2.46 2.41 2.41 6.08 0.26 c 5.45 0.26 6.18 0.42 7.02 1.47 1.10 1.31 1.10 1.52 0.42 2.62 -0.37 0.63 -1.89 0.84 -6.97 0.94 l -6.50 0.21 -0.63 1.73 c -0.79 2.20 -3.14 4.24 -5.71 4.98 -2.36 0.63 -3.56 0.63 -5.61 -0.10 z "/>
  <path d="M 353 80.68 c -2.31 -0.68 -4.45 -2.51 -5.76 -4.82 l -1.20 -2.15 -5.34 -0.05 c -2.99 -0.05 -5.61 -0.31 -5.92 -0.63 -0.26 -0.26 -0.42 -1.26 -0.21 -2.15 0.31 -1.52 0.47 -1.62 3.46 -1.94 1.78 -0.16 4.40 -0.31 5.87 -0.31 2.57 0 2.88 -0.16 5.29 -2.62 l 2.51 -2.57 -4.87 -12.73 c -2.67 -7.02 -5.19 -13.36 -5.61 -14.15 -0.68 -1.41 -0.68 -1.47 1.83 -2.72 l 2.51 -1.26 1.20 2.93 c 0.68 1.68 3.46 8.54 6.13 15.30 3.98 10.06 5.08 12.36 6.08 12.73 1.57 0.58 3.98 2.83 4.92 4.66 0.42 0.79 0.73 2.36 0.73 3.51 0 6.39 -5.71 10.74 -11.63 8.96 z "/>
  <path d="M 324.29 41.65 c -1.41 -1.47 -1.52 -1.26 3.46 -6.97 l 3.25 -3.67 1.89 1.94 1.89 1.94 -4.09 4.03 c -2.25 2.20 -4.30 4.03 -4.61 4.03 -0.31 0 -1.10 -0.58 -1.78 -1.31 z "/>
 </g>
</svg>